<?xml version="1.0" standalone="no"?><!DOCTYPE svg PUBLIC "-//W3C//DTD SVG 1.1//EN" "http://www.w3.org/Graphics/SVG/1.1/DTD/svg11.dtd"><svg t="1553137535999" class="icon" style="" viewBox="0 0 1024 1024" version="1.1" xmlns="http://www.w3.org/2000/svg" p-id="5520" xmlns:xlink="http://www.w3.org/1999/xlink" width="200" height="200"><defs><style type="text/css"></style></defs><path d="M327.338667 390.656a32.128 32.128 0 1 0 64.213333 0 32.128 32.128 0 0 0-64.213333 0zM470.954667 389.76a32.128 32.128 0 1 0 64.256 0 32.128 32.128 0 0 0-64.256 0zM551.253333 533.418667a22.314667 22.314667 0 1 0 44.586667 0 22.314667 22.314667 0 0 0-44.586667 0zM664.533333 535.210667a22.314667 22.314667 0 1 0 44.629334 0 22.314667 22.314667 0 0 0-44.629334 0z" fill="#2BBB3D" p-id="5521"></path><path d="M512 21.333333C240.810667 21.333333 21.333333 240.810667 21.333333 512S240.810667 1002.666667 512 1002.666667 1002.666667 783.189333 1002.666667 512 783.189333 21.333333 512 21.333333z m-83.84 603.946667c-25.898667 0-46.421333-5.333333-72.277333-10.666667l-72.277334 35.669334 20.522667-61.568c-51.754667-35.669333-82.048-82.048-82.048-139.178667 0-98.133333 92.757333-174.848 206.08-174.848 100.778667 0 189.994667 61.568 207.829333 144.512-6.229333-0.853333-13.354667-0.853333-19.626666-0.853333-98.133333 0-174.848 73.130667-174.848 163.242666 0 15.146667 2.688 29.44 6.272 42.837334-7.168 0-13.397333 0.853333-19.626667 0.853333z m301.525333 72.277333l15.146667 51.754667-56.192-31.232c-20.48 5.333333-41.045333 10.666667-61.568 10.666667-98.133333 0-174.848-66.858667-174.848-148.906667 0-82.133333 76.714667-149.034667 174.848-149.034667 92.8 0 174.848 66.901333 174.848 148.992 0 45.482667-30.293333 86.528-72.234667 117.76z" fill="#2BBB3D" p-id="5522"></path></svg>