<?xml version="1.0" standalone="no"?><!DOCTYPE svg PUBLIC "-//W3C//DTD SVG 1.1//EN" "http://www.w3.org/Graphics/SVG/1.1/DTD/svg11.dtd"><svg t="1553136977341" class="icon" style="" viewBox="0 0 1293 1024" version="1.1" xmlns="http://www.w3.org/2000/svg" p-id="2544" xmlns:xlink="http://www.w3.org/1999/xlink" width="252.5390625" height="200"><defs><style type="text/css"></style></defs><path d="M308.18303 298.676098c-34.648562 0-68.715066-22.296018-68.715067-55.376259 0-33.629962 34.066505-55.360091 67.987495-55.360091 34.648562 0 56.928411 21.584615 56.928412 55.360091 0.711403 33.080241-22.134335 55.376259-56.20084 55.376259z m318.676224-110.590836c34.632393 0 56.912243 21.584615 56.912243 55.360091 0 33.080241-22.27985 55.360091-56.912243 55.360091-34.066505 0-68.715066-22.27985-68.715066-55.360091 0-33.775476 34.777908-55.360091 68.715066-55.360091z m245.498721 120.097768a357.965074 357.965074 0 0 1 43.848297 2.554583C876.319197 132.159283 679.891117 0 456.090189 0 205.336786 0 0 165.950927 0 376.316039c0 122.070294 67.987495 221.165504 182.55572 298.65993L136.702561 808.412543l159.693814-77.445922c56.912243 10.784223 102.765402 22.27985 159.693814 22.27985 13.791518 0 28.165093-0.711403 42.538668-1.843181a312.047242 312.047242 0 0 1-14.373575-92.838096c0-193.388449 170.769066-350.382164 388.102693-350.382164z" fill="#79D164" p-id="2545"></path><path d="M1017.43569 592.841254c-23.363122 0-47.340639-26.338081-47.340638-53.549247 0.759908-27.211166 23.977516-54.244482 47.340638-54.244481 36.33006 0 60.45309 27.211166 60.45309 54.244481s-24.12303 53.549247-60.45309 53.549247z m-215.247924 0c-23.540973 0-47.664004-26.338081-47.664003-53.549247S778.646793 485.047526 802.187766 485.047526c36.572583 0 60.097388 27.211166 60.097389 54.244481 0.759908 27.211166-23.379291 53.549247-60.097389 53.549247zM1293.460069 651.305649C1293.460069 470.479932 1115.609309 323.365017 916.206272 323.365017c-210.963337 0-377.269966 147.131083-377.269966 327.940632s166.306628 327.374743 377.269966 327.374744c44.656709 0 89.167903-11.73815 133.258723-22.732561l122.345154 68.052168-33.726971-112.789718c89.087062-67.906654 155.376891-158.109325 155.376891-259.904633z" fill="#79D164" p-id="2546"></path></svg>